<svg xmlns="http://www.w3.org/2000/svg" width="32" height="32">
    <path style="stroke:none;fill-rule:nonzero;fill:#000;fill-opacity:1" d="m22.352 21.555 1.777-2c.277-.313.762-.094.762.36V29c0 1.656-1.196 3-2.668 3H2.668C1.195 32 0 30.656 0 29V7c0-1.656 1.195-3 2.668-3h15.191c.395 0 .598.54.32.855l-1.78 2a.41.41 0 0 1-.317.145H2.668v22h19.555v-7.094c0-.133.043-.258.129-.351Zm8.699-12.61-14.59 16.41-5.023.625c-1.454.184-2.692-1.199-2.532-2.847l.555-5.653L24.05 1.07c1.27-1.433 3.328-1.433 4.594 0l2.398 2.7c1.273 1.43 1.273 3.75.008 5.175Zm-5.488 1.93-3.231-3.633-10.32 11.621-.407 4.082 3.63-.457Zm3.597-4.98-2.398-2.7a.536.536 0 0 0-.825 0l-1.714 1.93 3.226 3.633 1.719-1.934a.72.72 0 0 0-.008-.93Zm0 0"/>
</svg>
