<svg xmlns="http://www.w3.org/2000/svg" width="32" height="32">
    <path style="stroke:none;fill-rule:nonzero;fill:#000;fill-opacity:1" d="M16 9a5.615 5.615 0 0 0-1.734.313c.257.515.398 1.093.402 1.687 0 1.934-1.395 3.5-3.113 3.5a2.821 2.821 0 0 1-1.5-.453c-.739 2.887.246 5.984 2.445 7.687 2.203 1.703 5.125 1.63 7.258-.18 2.133-1.808 2.996-4.952 2.14-7.8C21.047 10.906 18.672 8.992 16 9Zm15.809 6.086C28.793 8.473 22.829 4 16 4 9.172 4 3.203 8.477.191 15.09a2.28 2.28 0 0 0 0 1.824C3.207 23.527 9.171 28 16 28c6.828 0 12.797-4.477 15.809-11.09a2.28 2.28 0 0 0 0-1.824ZM16 25c-5.48 0-10.504-3.438-13.219-9C5.496 10.437 10.52 7 16 7c5.48 0 10.504 3.438 13.219 9-2.715 5.563-7.739 9-13.219 9Zm0 0"/>
</svg>
